# xmcd
#
# Track frame offsets: 
#        150
#        14894
#        34536
#        47863
#        64467
#        86916
#        97446
#        114407
#        126831
#        139202
#        161033
#        173537
#        189067
#        203319
#
# Disc length: 2857 seconds
#
# Revision: 1
# Processed by: cddbd v1.5.2PL0 Copyright (c) Steve Scherf et al.
# Submitted via: ExactAudioCopy v0.99pb4
#
DISCID=c50b270e
DTITLE=Various Artist - Searching For The Young Soul Rebels Vol. 2
DYEAR=2001
DGENRE=Ska
TTITLE0=Rudy Wily's Sound - No Place
TTITLE1=Empire AllStars - Journey
TTITLE2=Debonaires - Broken Heart
TTITLE3=Irie Beats - True Action
TTITLE4=The Mood - Deep Down
TTITLE5=Dreamlets - My Boy Lollipop
TTITLE6=Kalles Kaviar - Nine Feet Tall
TTITLE7=Soulsteppers - Our Message
TTITLE8=Dynamos - Rays Mood
TTITLE9=Viking's Remedy - If YOu Loose Me
TTITLE10=Kingston 10 - Concordance
TTITLE11=Aggronauts - In The Midnight Hour
TTITLE12=Jazzbo - Jody Grind
TTITLE13=Bonus Track
EXTD=Spirit of 69 Records \n
EXTT0=
EXTT1=
EXTT2=
EXTT3=
EXTT4=
EXTT5=
EXTT6=
EXTT7=
EXTT8=
EXTT9=
EXTT10=
EXTT11=
EXTT12=
EXTT13=
PLAYORDER=
